<?xml version="1.0" encoding="UTF-8" standalone="no"?>
<!DOCTYPE svg PUBLIC "-//W3C//DTD SVG 1.1//EN" "http://www.w3.org/Graphics/SVG/1.1/DTD/svg11.dtd">
<svg width="100%" height="100%" viewBox="0 0 96 75" version="1.1" xmlns="http://www.w3.org/2000/svg" xmlns:xlink="http://www.w3.org/1999/xlink" xml:space="preserve" xmlns:serif="http://www.serif.com/" style="fill-rule:evenodd;clip-rule:evenodd;stroke-linejoin:round;stroke-miterlimit:2;">
    <g transform="matrix(1,0,0,1,-2.22655e-13,-8.19048)">
        <g id="Table-Add" serif:id="Table Add" transform="matrix(2.27273,2.80135e-32,2.80135e-32,2.27273,-2823.03,-3185.16)">
            <g transform="matrix(0.439127,-5.41266e-33,-4.19912e-33,0.340673,1242.22,1405.14)">
                <rect x="-0.19" y="-0.19" width="96" height="96.19" style="fill:rgb(255,246,252);"/>
            </g>
            <g transform="matrix(1,6.16298e-32,0,1,1146.2,1332.9)">
                <path d="M127.8,87.1L117.8,87.1L117.8,77.1L115.8,77.1L115.8,87.1L105.8,87.1L105.8,89.1L115.8,89.1L115.8,99.1L117.8,99.1L117.8,89.1L127.8,89.1L127.8,87.1Z" style="fill:rgb(172,172,172);fill-rule:nonzero;"/>
            </g>
        </g>
    </g>
</svg>
